<?xml version="1.0" standalone="no"?>
<!DOCTYPE svg PUBLIC "-//W3C//DTD SVG 20010904//EN"
 "http://www.w3.org/TR/2001/REC-SVG-20010904/DTD/svg10.dtd">
<svg version="1.0" xmlns="http://www.w3.org/2000/svg"
 width="333.000000pt" height="329.000000pt" viewBox="0 0 333.000000 329.000000"
 preserveAspectRatio="xMidYMid meet">

<g transform="translate(0.000000,329.000000) scale(0.100000,-0.100000)"
fill="#000000" stroke="none">
<path d="M2035 2437 c-84 -28 -178 -92 -212 -144 -15 -23 -15 -25 22 -63 l38
-39 56 51 c63 57 114 82 188 93 143 19 266 -81 248 -203 -5 -38 -15 -55 -49
-88 -52 -49 -102 -64 -215 -64 l-81 0 0 -60 0 -60 100 0 c175 0 259 -51 268
-163 16 -214 -300 -279 -484 -100 l-47 45 -41 -41 -40 -41 20 -27 c32 -44 140
-111 216 -134 97 -30 239 -24 320 13 119 55 181 147 182 268 0 47 -6 76 -22
106 -25 49 -91 109 -139 126 -39 14 -42 24 -10 32 36 9 103 72 126 119 46 94
16 237 -62 303 -65 55 -133 78 -242 81 -63 2 -115 -2 -140 -10z"/>
<path d="M840 1916 l0 -516 283 0 c161 0 298 4 319 10 20 6 58 25 85 43 165
111 159 358 -12 466 l-44 28 39 32 c22 17 52 53 67 79 24 40 28 58 27 117 0
80 -22 131 -76 181 -72 69 -73 69 -395 72 l-293 3 0 -515z m555 378 c112 -58
115 -204 5 -268 -32 -19 -55 -21 -232 -24 l-198 -4 0 162 0 161 193 -3 c172
-3 196 -5 232 -24z m22 -435 c84 -40 123 -134 94 -222 -15 -45 -78 -102 -128
-116 -21 -6 -122 -11 -225 -11 l-188 0 0 185 0 185 202 0 c185 0 205 -2 245
-21z"/>
<path d="M945 1286 c-115 -51 -140 -202 -49 -288 56 -52 128 -62 201 -27 l43
21 0 74 0 74 -71 0 c-67 0 -70 -1 -67 -22 3 -20 10 -23 51 -26 l48 -3 -3 -37
c-3 -33 -7 -38 -42 -50 -49 -16 -87 -8 -126 24 -115 97 7 282 142 215 31 -15
45 -18 55 -9 21 17 16 25 -30 47 -49 24 -108 26 -152 7z"/>
<path d="M1615 1286 c-115 -51 -140 -202 -49 -288 110 -103 284 -25 284 127 0
123 -126 209 -235 161z m126 -49 c45 -29 73 -87 65 -131 -13 -69 -81 -123
-142 -111 -128 23 -148 199 -29 251 43 19 67 17 106 -9z"/>
<path d="M1210 1125 c0 -158 1 -165 20 -165 18 0 20 7 20 55 l0 55 44 0 c43 0
46 -2 83 -55 30 -43 44 -55 65 -55 l27 0 -39 56 -39 56 40 37 c53 51 55 97 5
147 -34 34 -34 34 -130 34 l-96 0 0 -165z m188 108 c34 -30 37 -59 8 -88 -22
-22 -34 -25 -91 -25 l-65 0 0 65 0 65 64 0 c46 0 69 -5 84 -17z"/>
<path d="M1911 1167 c3 -97 8 -129 22 -150 42 -64 131 -86 194 -47 53 32 66
70 71 203 l4 117 -26 0 -26 0 0 -110 c0 -60 -5 -120 -11 -134 -18 -38 -72 -60
-114 -46 -55 18 -65 44 -65 175 l0 115 -26 0 -26 0 3 -123z"/>
<path d="M2270 1126 c0 -159 1 -166 20 -166 18 0 20 7 20 55 l0 55 43 0 c113
1 172 40 172 115 0 35 -6 50 -28 72 -26 26 -34 28 -127 31 l-100 4 0 -166z
m188 108 c15 -10 22 -25 22 -49 0 -48 -29 -65 -107 -65 l-63 0 0 65 0 65 63 0
c40 0 70 -5 85 -16z"/>
</g>
</svg>
